solid OpenSCAD_Model
  facet normal 0.0653965 -0.997859 0
    outer loop
      vertex 51.2 0 0
      vertex 51.461 0.0171051 14.1
      vertex 51.2 0 14.1
    endloop
  endfacet
  facet normal 0.0653965 -0.997859 0
    outer loop
      vertex 51.461 0.0171051 14.1
      vertex 51.2 0 0
      vertex 51.461 0.0171051 0
    endloop
  endfacet
  facet normal 0 -1 0
    outer loop
      vertex 2 0 14.1
      vertex 9.1 0 8
      vertex 9.1 0 14.1
    endloop
  endfacet
  facet normal 0 -1 -0
    outer loop
      vertex 9.1 0 8
      vertex 2 0 0
      vertex 21.1 0 8
    endloop
  endfacet
  facet normal 0 -1 0
    outer loop
      vertex 2 0 0
      vertex 9.1 0 8
      vertex 2 0 14.1
    endloop
  endfacet
  facet normal 0 -1 0
    outer loop
      vertex 21.1 0 14.1
      vertex 21.6 0 12.1
      vertex 21.6 0 14.1
    endloop
  endfacet
  facet normal 0 -1 -0
    outer loop
      vertex 21.6 0 12.1
      vertex 21.1 0 8
      vertex 31.6 0 12.1
    endloop
  endfacet
  facet normal 0 -1 0
    outer loop
      vertex 21.1 0 8
      vertex 21.6 0 12.1
      vertex 21.1 0 14.1
    endloop
  endfacet
  facet normal 0 -1 0
    outer loop
      vertex 31.6 0 12.1
      vertex 51.2 0 14.1
      vertex 31.6 0 14.1
    endloop
  endfacet
  facet normal 0 -1 0
    outer loop
      vertex 51.2 0 0
      vertex 31.6 0 12.1
      vertex 21.1 0 8
    endloop
  endfacet
  facet normal 0 -1 0
    outer loop
      vertex 51.2 0 0
      vertex 21.1 0 8
      vertex 2 0 0
    endloop
  endfacet
  facet normal 0 -1 0
    outer loop
      vertex 31.6 0 12.1
      vertex 51.2 0 0
      vertex 51.2 0 14.1
    endloop
  endfacet
  facet normal -0.980784 -0.195097 0
    outer loop
      vertex 0.0681458 1.48236 0
      vertex 0.0171051 1.73895 14.1
      vertex 0.0171051 1.73895 0
    endloop
  endfacet
  facet normal -0.980784 -0.195097 0
    outer loop
      vertex 0.0171051 1.73895 14.1
      vertex 0.0681458 1.48236 0
      vertex 0.0681458 1.48236 14.1
    endloop
  endfacet
  facet normal -0.751847 -0.659337 0
    outer loop
      vertex 0.585785 0.585785 0
      vertex 0.4133 0.782471 14.1
      vertex 0.4133 0.782471 0
    endloop
  endfacet
  facet normal -0.751847 -0.659337 0
    outer loop
      vertex 0.4133 0.782471 14.1
      vertex 0.585785 0.585785 0
      vertex 0.585785 0.585785 14.1
    endloop
  endfacet
  facet normal -0.195097 -0.980784 0
    outer loop
      vertex 1.48236 0.0681458 0
      vertex 1.73895 0.0171051 14.1
      vertex 1.48236 0.0681458 14.1
    endloop
  endfacet
  facet normal -0.195097 -0.980784 -0
    outer loop
      vertex 1.73895 0.0171051 14.1
      vertex 1.48236 0.0681458 0
      vertex 1.73895 0.0171051 0
    endloop
  endfacet
  facet normal 0.997861 0.0653771 0
    outer loop
      vertex 53.2 40.2 14.1
      vertex 53.1829 40.461 0
      vertex 53.1829 40.461 14.1
    endloop
  endfacet
  facet normal 0.997861 0.0653771 0
    outer loop
      vertex 53.1829 40.461 0
      vertex 53.2 40.2 14.1
      vertex 53.2 40.2 0
    endloop
  endfacet
  facet normal -0.0653646 0.997861 0
    outer loop
      vertex 2 42.2 0
      vertex 1.73895 42.1829 14.1
      vertex 2 42.2 14.1
    endloop
  endfacet
  facet normal -0.0653646 0.997861 0
    outer loop
      vertex 1.73895 42.1829 14.1
      vertex 2 42.2 0
      vertex 1.73895 42.1829 0
    endloop
  endfacet
  facet normal 0.442314 0.89686 -0
    outer loop
      vertex 52.2 41.9321 0
      vertex 51.9654 42.0478 14.1
      vertex 52.2 41.9321 14.1
    endloop
  endfacet
  facet normal 0.442314 0.89686 0
    outer loop
      vertex 51.9654 42.0478 14.1
      vertex 52.2 41.9321 0
      vertex 51.9654 42.0478 0
    endloop
  endfacet
  facet normal 0.442335 -0.89685 0
    outer loop
      vertex 51.9654 0.152237 0
      vertex 52.2 0.267944 14.1
      vertex 51.9654 0.152237 14.1
    endloop
  endfacet
  facet normal 0.442335 -0.89685 0
    outer loop
      vertex 52.2 0.267944 14.1
      vertex 51.9654 0.152237 0
      vertex 52.2 0.267944 0
    endloop
  endfacet
  facet normal -0.831422 0.555642 0
    outer loop
      vertex 0.267944 41.2 0
      vertex 0.4133 41.4175 14.1
      vertex 0.4133 41.4175 0
    endloop
  endfacet
  facet normal -0.831422 0.555642 0
    outer loop
      vertex 0.4133 41.4175 14.1
      vertex 0.267944 41.2 0
      vertex 0.267944 41.2 14.1
    endloop
  endfacet
  facet normal -0.321463 0.946922 0
    outer loop
      vertex 1.48236 42.1319 0
      vertex 1.23463 42.0478 14.1
      vertex 1.48236 42.1319 14.1
    endloop
  endfacet
  facet normal -0.321463 0.946922 0
    outer loop
      vertex 1.23463 42.0478 14.1
      vertex 1.48236 42.1319 0
      vertex 1.23463 42.0478 0
    endloop
  endfacet
  facet normal 0 1 0
    outer loop
      vertex 51.2 42.2 14.1
      vertex 31.6 42.2 12.1
      vertex 31.6 42.2 14.1
    endloop
  endfacet
  facet normal 0 1 0
    outer loop
      vertex 31.6 42.2 12.1
      vertex 51.2 42.2 0
      vertex 21.6 42.2 12.1
    endloop
  endfacet
  facet normal 0 1 -0
    outer loop
      vertex 51.2 42.2 0
      vertex 31.6 42.2 12.1
      vertex 51.2 42.2 14.1
    endloop
  endfacet
  facet normal 0 1 -0
    outer loop
      vertex 21.6 42.2 12.1
      vertex 2 42.2 14.1
      vertex 21.6 42.2 14.1
    endloop
  endfacet
  facet normal 0 1 0
    outer loop
      vertex 2 42.2 0
      vertex 21.6 42.2 12.1
      vertex 51.2 42.2 0
    endloop
  endfacet
  facet normal 0 1 0
    outer loop
      vertex 21.6 42.2 12.1
      vertex 2 42.2 0
      vertex 2 42.2 14.1
    endloop
  endfacet
  facet normal -0.065384 -0.99786 0
    outer loop
      vertex 1.73895 0.0171051 0
      vertex 2 0 14.1
      vertex 1.73895 0.0171051 14.1
    endloop
  endfacet
  facet normal -0.065384 -0.99786 -0
    outer loop
      vertex 2 0 14.1
      vertex 1.73895 0.0171051 0
      vertex 2 0 0
    endloop
  endfacet
  facet normal 0.751842 0.659343 0
    outer loop
      vertex 52.7867 41.4175 14.1
      vertex 52.6142 41.6142 0
      vertex 52.6142 41.6142 14.1
    endloop
  endfacet
  facet normal 0.751842 0.659343 0
    outer loop
      vertex 52.6142 41.6142 0
      vertex 52.7867 41.4175 14.1
      vertex 52.7867 41.4175 0
    endloop
  endfacet
  facet normal 0.19509 -0.980785 0
    outer loop
      vertex 51.461 0.0171051 0
      vertex 51.7176 0.0681458 14.1
      vertex 51.461 0.0171051 14.1
    endloop
  endfacet
  facet normal 0.19509 -0.980785 0
    outer loop
      vertex 51.7176 0.0681458 14.1
      vertex 51.461 0.0171051 0
      vertex 51.7176 0.0681458 0
    endloop
  endfacet
  facet normal -1 0 0
    outer loop
      vertex 0 2 0
      vertex 0 40.2 14.1
      vertex 0 40.2 0
    endloop
  endfacet
  facet normal -1 -0 0
    outer loop
      vertex 0 40.2 14.1
      vertex 0 2 0
      vertex 0 2 14.1
    endloop
  endfacet
  facet normal 1 -0 0
    outer loop
      vertex 53.2 2 14.1
      vertex 53.2 40.2 0
      vertex 53.2 40.2 14.1
    endloop
  endfacet
  facet normal 1 0 0
    outer loop
      vertex 53.2 40.2 0
      vertex 53.2 2 14.1
      vertex 53.2 2 0
    endloop
  endfacet
  facet normal 0.659343 0.751842 -0
    outer loop
      vertex 52.6142 41.6142 0
      vertex 52.4175 41.7867 14.1
      vertex 52.6142 41.6142 14.1
    endloop
  endfacet
  facet normal 0.659343 0.751842 0
    outer loop
      vertex 52.4175 41.7867 14.1
      vertex 52.6142 41.6142 0
      vertex 52.4175 41.7867 0
    endloop
  endfacet
  facet normal 0.751819 -0.65937 0
    outer loop
      vertex 52.6142 0.585785 14.1
      vertex 52.7867 0.782471 0
      vertex 52.7867 0.782471 14.1
    endloop
  endfacet
  facet normal 0.751819 -0.65937 0
    outer loop
      vertex 52.7867 0.782471 0
      vertex 52.6142 0.585785 14.1
      vertex 52.6142 0.585785 0
    endloop
  endfacet
  facet normal 0.0653771 0.997861 -0
    outer loop
      vertex 51.461 42.1829 0
      vertex 51.2 42.2 14.1
      vertex 51.461 42.1829 14.1
    endloop
  endfacet
  facet normal 0.0653771 0.997861 0
    outer loop
      vertex 51.2 42.2 14.1
      vertex 51.461 42.1829 0
      vertex 51.2 42.2 0
    endloop
  endfacet
  facet normal 0.980814 -0.194947 0
    outer loop
      vertex 53.1319 1.48236 14.1
      vertex 53.1829 1.73895 0
      vertex 53.1829 1.73895 14.1
    endloop
  endfacet
  facet normal 0.980814 -0.194947 0
    outer loop
      vertex 53.1829 1.73895 0
      vertex 53.1319 1.48236 14.1
      vertex 53.1319 1.48236 0
    endloop
  endfacet
  facet normal -0.980785 0.19509 0
    outer loop
      vertex 0.0171051 40.461 0
      vertex 0.0681458 40.7176 14.1
      vertex 0.0681458 40.7176 0
    endloop
  endfacet
  facet normal -0.980785 0.19509 0
    outer loop
      vertex 0.0681458 40.7176 14.1
      vertex 0.0171051 40.461 0
      vertex 0.0171051 40.461 14.1
    endloop
  endfacet
  facet normal -0.555707 0.831378 0
    outer loop
      vertex 1 41.9321 0
      vertex 0.782471 41.7867 14.1
      vertex 1 41.9321 14.1
    endloop
  endfacet
  facet normal -0.555707 0.831378 0
    outer loop
      vertex 0.782471 41.7867 14.1
      vertex 1 41.9321 0
      vertex 0.782471 41.7867 0
    endloop
  endfacet
  facet normal 0.555758 0.831344 -0
    outer loop
      vertex 52.4175 41.7867 0
      vertex 52.2 41.9321 14.1
      vertex 52.4175 41.7867 14.1
    endloop
  endfacet
  facet normal 0.555758 0.831344 0
    outer loop
      vertex 52.2 41.9321 14.1
      vertex 52.4175 41.7867 0
      vertex 52.2 41.9321 0
    endloop
  endfacet
  facet normal -0.94696 0.321352 0
    outer loop
      vertex 0.0681458 40.7176 0
      vertex 0.152237 40.9654 14.1
      vertex 0.152237 40.9654 0
    endloop
  endfacet
  facet normal -0.94696 0.321352 0
    outer loop
      vertex 0.152237 40.9654 14.1
      vertex 0.0681458 40.7176 0
      vertex 0.0681458 40.7176 14.1
    endloop
  endfacet
  facet normal -0.831456 -0.555591 0
    outer loop
      vertex 0.4133 0.782471 0
      vertex 0.267944 1 14.1
      vertex 0.267944 1 0
    endloop
  endfacet
  facet normal -0.831456 -0.555591 0
    outer loop
      vertex 0.267944 1 14.1
      vertex 0.4133 0.782471 0
      vertex 0.4133 0.782471 14.1
    endloop
  endfacet
  facet normal -0.946932 -0.321433 0
    outer loop
      vertex 0.152237 1.23463 0
      vertex 0.0681458 1.48236 14.1
      vertex 0.0681458 1.48236 0
    endloop
  endfacet
  facet normal -0.946932 -0.321433 0
    outer loop
      vertex 0.0681458 1.48236 14.1
      vertex 0.152237 1.23463 0
      vertex 0.152237 1.23463 14.1
    endloop
  endfacet
  facet normal -0.321433 -0.946932 0
    outer loop
      vertex 1.23463 0.152237 0
      vertex 1.48236 0.0681458 14.1
      vertex 1.23463 0.152237 14.1
    endloop
  endfacet
  facet normal -0.321433 -0.946932 -0
    outer loop
      vertex 1.48236 0.0681458 14.1
      vertex 1.23463 0.152237 0
      vertex 1.48236 0.0681458 0
    endloop
  endfacet
  facet normal -0.555591 -0.831456 0
    outer loop
      vertex 0.782471 0.4133 0
      vertex 1 0.267944 14.1
      vertex 0.782471 0.4133 14.1
    endloop
  endfacet
  facet normal -0.555591 -0.831456 -0
    outer loop
      vertex 1 0.267944 14.1
      vertex 0.782471 0.4133 0
      vertex 1 0.267944 0
    endloop
  endfacet
  facet normal -0.442268 0.896883 0
    outer loop
      vertex 1.23463 42.0478 0
      vertex 1 41.9321 14.1
      vertex 1.23463 42.0478 14.1
    endloop
  endfacet
  facet normal -0.442268 0.896883 0
    outer loop
      vertex 1 41.9321 14.1
      vertex 1.23463 42.0478 0
      vertex 1 41.9321 0
    endloop
  endfacet
  facet normal -0.89685 0.442335 0
    outer loop
      vertex 0.152237 40.9654 0
      vertex 0.267944 41.2 14.1
      vertex 0.267944 41.2 0
    endloop
  endfacet
  facet normal -0.89685 0.442335 0
    outer loop
      vertex 0.267944 41.2 14.1
      vertex 0.152237 40.9654 0
      vertex 0.152237 40.9654 14.1
    endloop
  endfacet
  facet normal -0.751871 0.659311 0
    outer loop
      vertex 0.4133 41.4175 0
      vertex 0.585785 41.6142 14.1
      vertex 0.585785 41.6142 0
    endloop
  endfacet
  facet normal -0.751871 0.659311 0
    outer loop
      vertex 0.585785 41.6142 14.1
      vertex 0.4133 41.4175 0
      vertex 0.4133 41.4175 14.1
    endloop
  endfacet
  facet normal 0.555642 -0.831422 0
    outer loop
      vertex 52.2 0.267944 0
      vertex 52.4175 0.4133 14.1
      vertex 52.2 0.267944 14.1
    endloop
  endfacet
  facet normal 0.555642 -0.831422 0
    outer loop
      vertex 52.4175 0.4133 14.1
      vertex 52.2 0.267944 0
      vertex 52.4175 0.4133 0
    endloop
  endfacet
  facet normal 0.980815 0.19494 0
    outer loop
      vertex 53.1829 40.461 14.1
      vertex 53.1319 40.7176 0
      vertex 53.1319 40.7176 14.1
    endloop
  endfacet
  facet normal 0.980815 0.19494 0
    outer loop
      vertex 53.1319 40.7176 0
      vertex 53.1829 40.461 14.1
      vertex 53.1829 40.461 0
    endloop
  endfacet
  facet normal -0.44229 -0.896872 0
    outer loop
      vertex 1 0.267944 0
      vertex 1.23463 0.152237 14.1
      vertex 1 0.267944 14.1
    endloop
  endfacet
  facet normal -0.44229 -0.896872 -0
    outer loop
      vertex 1.23463 0.152237 14.1
      vertex 1 0.267944 0
      vertex 1.23463 0.152237 0
    endloop
  endfacet
  facet normal 0.321352 -0.94696 0
    outer loop
      vertex 51.7176 0.0681458 0
      vertex 51.9654 0.152237 14.1
      vertex 51.7176 0.0681458 14.1
    endloop
  endfacet
  facet normal 0.321352 -0.94696 0
    outer loop
      vertex 51.9654 0.152237 14.1
      vertex 51.7176 0.0681458 0
      vertex 51.9654 0.152237 0
    endloop
  endfacet
  facet normal -0.194947 0.980814 0
    outer loop
      vertex 1.73895 42.1829 0
      vertex 1.48236 42.1319 14.1
      vertex 1.73895 42.1829 14.1
    endloop
  endfacet
  facet normal -0.194947 0.980814 0
    outer loop
      vertex 1.48236 42.1319 14.1
      vertex 1.73895 42.1829 0
      vertex 1.48236 42.1319 0
    endloop
  endfacet
  facet normal 0.946922 -0.321463 0
    outer loop
      vertex 53.0478 1.23463 14.1
      vertex 53.1319 1.48236 0
      vertex 53.1319 1.48236 14.1
    endloop
  endfacet
  facet normal 0.946922 -0.321463 0
    outer loop
      vertex 53.1319 1.48236 0
      vertex 53.0478 1.23463 14.1
      vertex 53.0478 1.23463 0
    endloop
  endfacet
  facet normal 0.89686 0.442314 0
    outer loop
      vertex 53.0478 40.9654 14.1
      vertex 52.9321 41.2 0
      vertex 52.9321 41.2 14.1
    endloop
  endfacet
  facet normal 0.89686 0.442314 0
    outer loop
      vertex 52.9321 41.2 0
      vertex 53.0478 40.9654 14.1
      vertex 53.0478 40.9654 0
    endloop
  endfacet
  facet normal -0.659337 -0.751847 0
    outer loop
      vertex 0.585785 0.585785 0
      vertex 0.782471 0.4133 14.1
      vertex 0.585785 0.585785 14.1
    endloop
  endfacet
  facet normal -0.659337 -0.751847 -0
    outer loop
      vertex 0.782471 0.4133 14.1
      vertex 0.585785 0.585785 0
      vertex 0.782471 0.4133 0
    endloop
  endfacet
  facet normal 0.896883 -0.442268 0
    outer loop
      vertex 52.9321 1 14.1
      vertex 53.0478 1.23463 0
      vertex 53.0478 1.23463 14.1
    endloop
  endfacet
  facet normal 0.896883 -0.442268 0
    outer loop
      vertex 53.0478 1.23463 0
      vertex 52.9321 1 14.1
      vertex 52.9321 1 0
    endloop
  endfacet
  facet normal -0.997859 0.0653965 0
    outer loop
      vertex 0 40.2 0
      vertex 0.0171051 40.461 14.1
      vertex 0.0171051 40.461 0
    endloop
  endfacet
  facet normal -0.997859 0.0653965 0
    outer loop
      vertex 0.0171051 40.461 14.1
      vertex 0 40.2 0
      vertex 0 40.2 14.1
    endloop
  endfacet
  facet normal -0.896872 -0.44229 0
    outer loop
      vertex 0.267944 1 0
      vertex 0.152237 1.23463 14.1
      vertex 0.152237 1.23463 0
    endloop
  endfacet
  facet normal -0.896872 -0.44229 0
    outer loop
      vertex 0.152237 1.23463 14.1
      vertex 0.267944 1 0
      vertex 0.267944 1 14.1
    endloop
  endfacet
  facet normal 0.997861 -0.0653646 0
    outer loop
      vertex 53.1829 1.73895 14.1
      vertex 53.2 2 0
      vertex 53.2 2 14.1
    endloop
  endfacet
  facet normal 0.997861 -0.0653646 0
    outer loop
      vertex 53.2 2 0
      vertex 53.1829 1.73895 14.1
      vertex 53.1829 1.73895 0
    endloop
  endfacet
  facet normal 0.94695 0.321382 0
    outer loop
      vertex 53.1319 40.7176 14.1
      vertex 53.0478 40.9654 0
      vertex 53.0478 40.9654 14.1
    endloop
  endfacet
  facet normal 0.94695 0.321382 0
    outer loop
      vertex 53.0478 40.9654 0
      vertex 53.1319 40.7176 14.1
      vertex 53.1319 40.7176 0
    endloop
  endfacet
  facet normal -0.99786 -0.065384 0
    outer loop
      vertex 0.0171051 1.73895 0
      vertex 0 2 14.1
      vertex 0 2 0
    endloop
  endfacet
  facet normal -0.99786 -0.065384 0
    outer loop
      vertex 0 2 14.1
      vertex 0.0171051 1.73895 0
      vertex 0.0171051 1.73895 14.1
    endloop
  endfacet
  facet normal 0.659311 -0.751871 0
    outer loop
      vertex 52.4175 0.4133 0
      vertex 52.6142 0.585785 14.1
      vertex 52.4175 0.4133 14.1
    endloop
  endfacet
  facet normal 0.659311 -0.751871 0
    outer loop
      vertex 52.6142 0.585785 14.1
      vertex 52.4175 0.4133 0
      vertex 52.6142 0.585785 0
    endloop
  endfacet
  facet normal 0.19494 0.980815 -0
    outer loop
      vertex 51.7176 42.1319 0
      vertex 51.461 42.1829 14.1
      vertex 51.7176 42.1319 14.1
    endloop
  endfacet
  facet normal 0.19494 0.980815 0
    outer loop
      vertex 51.461 42.1829 14.1
      vertex 51.7176 42.1319 0
      vertex 51.461 42.1829 0
    endloop
  endfacet
  facet normal 0.321382 0.94695 -0
    outer loop
      vertex 51.9654 42.0478 0
      vertex 51.7176 42.1319 14.1
      vertex 51.9654 42.0478 14.1
    endloop
  endfacet
  facet normal 0.321382 0.94695 0
    outer loop
      vertex 51.7176 42.1319 14.1
      vertex 51.9654 42.0478 0
      vertex 51.7176 42.1319 0
    endloop
  endfacet
  facet normal 0.831344 0.555758 0
    outer loop
      vertex 52.9321 41.2 14.1
      vertex 52.7867 41.4175 0
      vertex 52.7867 41.4175 14.1
    endloop
  endfacet
  facet normal 0.831344 0.555758 0
    outer loop
      vertex 52.7867 41.4175 0
      vertex 52.9321 41.2 14.1
      vertex 52.9321 41.2 0
    endloop
  endfacet
  facet normal -0.65937 0.751819 0
    outer loop
      vertex 0.782471 41.7867 0
      vertex 0.585785 41.6142 14.1
      vertex 0.782471 41.7867 14.1
    endloop
  endfacet
  facet normal -0.65937 0.751819 0
    outer loop
      vertex 0.585785 41.6142 14.1
      vertex 0.782471 41.7867 0
      vertex 0.585785 41.6142 0
    endloop
  endfacet
  facet normal 0.831378 -0.555707 0
    outer loop
      vertex 52.7867 0.782471 14.1
      vertex 52.9321 1 0
      vertex 52.9321 1 14.1
    endloop
  endfacet
  facet normal 0.831378 -0.555707 0
    outer loop
      vertex 52.9321 1 0
      vertex 52.7867 0.782471 14.1
      vertex 52.7867 0.782471 0
    endloop
  endfacet
  facet normal 0 0 1
    outer loop
      vertex 21.6 42.2 14.1
      vertex 2 42.2 14.1
      vertex 21.6 41.21 14.1
    endloop
  endfacet
  facet normal 0 0 1
    outer loop
      vertex 51.6 40.6 14.1
      vertex 53.2 40.2 14.1
      vertex 53.1829 40.461 14.1
    endloop
  endfacet
  facet normal 0 0 1
    outer loop
      vertex 53.2 40.2 14.1
      vertex 51.6 40.6 14.1
      vertex 53.2 2 14.1
    endloop
  endfacet
  facet normal -0 0 1
    outer loop
      vertex 51.6 40.6 14.1
      vertex 53.1829 40.461 14.1
      vertex 53.1319 40.7176 14.1
    endloop
  endfacet
  facet normal 0 0 1
    outer loop
      vertex 51.6 1.6 14.1
      vertex 53.2 2 14.1
      vertex 51.6 40.6 14.1
    endloop
  endfacet
  facet normal 0 0 1
    outer loop
      vertex 51.6 40.6 14.1
      vertex 53.1319 40.7176 14.1
      vertex 53.0478 40.9654 14.1
    endloop
  endfacet
  facet normal 0 0 1
    outer loop
      vertex 53.2 2 14.1
      vertex 51.6 1.6 14.1
      vertex 53.1829 1.73895 14.1
    endloop
  endfacet
  facet normal 0 0 1
    outer loop
      vertex 51.6 40.6 14.1
      vertex 53.0478 40.9654 14.1
      vertex 52.9321 41.2 14.1
    endloop
  endfacet
  facet normal 0 0 1
    outer loop
      vertex 53.1829 1.73895 14.1
      vertex 51.6 1.6 14.1
      vertex 53.1319 1.48236 14.1
    endloop
  endfacet
  facet normal 0 0 1
    outer loop
      vertex 51.6 40.6 14.1
      vertex 52.9321 41.2 14.1
      vertex 52.7867 41.4175 14.1
    endloop
  endfacet
  facet normal 0 0 1
    outer loop
      vertex 53.1319 1.48236 14.1
      vertex 51.6 1.6 14.1
      vertex 53.0478 1.23463 14.1
    endloop
  endfacet
  facet normal 0 0 1
    outer loop
      vertex 51.6 40.6 14.1
      vertex 52.7867 41.4175 14.1
      vertex 52.6142 41.6142 14.1
    endloop
  endfacet
  facet normal 0 0 1
    outer loop
      vertex 53.0478 1.23463 14.1
      vertex 51.6 1.6 14.1
      vertex 52.9321 1 14.1
    endloop
  endfacet
  facet normal 0 0 1
    outer loop
      vertex 51.6 40.6 14.1
      vertex 52.6142 41.6142 14.1
      vertex 52.4175 41.7867 14.1
    endloop
  endfacet
  facet normal 0 0 1
    outer loop
      vertex 52.9321 1 14.1
      vertex 51.6 1.6 14.1
      vertex 52.7867 0.782471 14.1
    endloop
  endfacet
  facet normal 0 0 1
    outer loop
      vertex 51.6 40.6 14.1
      vertex 52.4175 41.7867 14.1
      vertex 52.2 41.9321 14.1
    endloop
  endfacet
  facet normal 0 0 1
    outer loop
      vertex 52.7867 0.782471 14.1
      vertex 51.6 1.6 14.1
      vertex 52.6142 0.585785 14.1
    endloop
  endfacet
  facet normal 0 0 1
    outer loop
      vertex 51.6 40.6 14.1
      vertex 52.2 41.9321 14.1
      vertex 51.9654 42.0478 14.1
    endloop
  endfacet
  facet normal 0 0 1
    outer loop
      vertex 52.6142 0.585785 14.1
      vertex 51.6 1.6 14.1
      vertex 52.4175 0.4133 14.1
    endloop
  endfacet
  facet normal 0 0 1
    outer loop
      vertex 51.6 40.6 14.1
      vertex 51.9654 42.0478 14.1
      vertex 51.7176 42.1319 14.1
    endloop
  endfacet
  facet normal 0 0 1
    outer loop
      vertex 52.4175 0.4133 14.1
      vertex 51.6 1.6 14.1
      vertex 52.2 0.267944 14.1
    endloop
  endfacet
  facet normal 0 0 1
    outer loop
      vertex 52.2 0.267944 14.1
      vertex 51.6 1.6 14.1
      vertex 51.9654 0.152237 14.1
    endloop
  endfacet
  facet normal 0 0 1
    outer loop
      vertex 51.461 42.1829 14.1
      vertex 51.6 40.6 14.1
      vertex 51.7176 42.1319 14.1
    endloop
  endfacet
  facet normal 0 0 1
    outer loop
      vertex 51.2 42.2 14.1
      vertex 51.6 40.6 14.1
      vertex 51.461 42.1829 14.1
    endloop
  endfacet
  facet normal 0 0 1
    outer loop
      vertex 31.6 41.21 14.1
      vertex 51.2 42.2 14.1
      vertex 31.6 42.2 14.1
    endloop
  endfacet
  facet normal 0 0 1
    outer loop
      vertex 51.2 42.2 14.1
      vertex 31.6 41.21 14.1
      vertex 51.6 40.6 14.1
    endloop
  endfacet
  facet normal -0 0 1
    outer loop
      vertex 21.6 41.21 14.1
      vertex 51.6 40.6 14.1
      vertex 31.6 41.21 14.1
    endloop
  endfacet
  facet normal 0 0 1
    outer loop
      vertex 1.6 40.6 14.1
      vertex 2 42.2 14.1
      vertex 1.73895 42.1829 14.1
    endloop
  endfacet
  facet normal 0 0 1
    outer loop
      vertex 21.6 41.21 14.1
      vertex 1.6 40.6 14.1
      vertex 51.6 40.6 14.1
    endloop
  endfacet
  facet normal 0 0 1
    outer loop
      vertex 2 42.2 14.1
      vertex 1.6 40.6 14.1
      vertex 21.6 41.21 14.1
    endloop
  endfacet
  facet normal -0 0 1
    outer loop
      vertex 1.23463 42.0478 14.1
      vertex 1.6 40.6 14.1
      vertex 1.48236 42.1319 14.1
    endloop
  endfacet
  facet normal -0 0 1
    outer loop
      vertex 1.48236 42.1319 14.1
      vertex 1.6 40.6 14.1
      vertex 1.73895 42.1829 14.1
    endloop
  endfacet
  facet normal 0 0 1
    outer loop
      vertex 51.9654 0.152237 14.1
      vertex 51.6 1.6 14.1
      vertex 51.7176 0.0681458 14.1
    endloop
  endfacet
  facet normal 0 0 1
    outer loop
      vertex 51.6 1.6 14.1
      vertex 51.461 0.0171051 14.1
      vertex 51.7176 0.0681458 14.1
    endloop
  endfacet
  facet normal 0 0 1
    outer loop
      vertex 51.6 1.6 14.1
      vertex 51.2 0 14.1
      vertex 51.461 0.0171051 14.1
    endloop
  endfacet
  facet normal 0 0 1
    outer loop
      vertex 51.6 1.6 14.1
      vertex 31.6 0.99 14.1
      vertex 51.2 0 14.1
    endloop
  endfacet
  facet normal -0 0 1
    outer loop
      vertex 21.1 1.6 14.1
      vertex 31.6 0.99 14.1
      vertex 51.6 1.6 14.1
    endloop
  endfacet
  facet normal 0 0 1
    outer loop
      vertex 31.6 0.99 14.1
      vertex 21.1 1.6 14.1
      vertex 21.6 0.99 14.1
    endloop
  endfacet
  facet normal 0 0 1
    outer loop
      vertex 21.1 0 14.1
      vertex 21.6 0.99 14.1
      vertex 21.1 1.6 14.1
    endloop
  endfacet
  facet normal 0 0 1
    outer loop
      vertex 21.6 0.99 14.1
      vertex 21.1 0 14.1
      vertex 21.6 0 14.1
    endloop
  endfacet
  facet normal 0 0 1
    outer loop
      vertex 51.2 0 14.1
      vertex 31.6 0.99 14.1
      vertex 31.6 0 14.1
    endloop
  endfacet
  facet normal 0 0 1
    outer loop
      vertex 9.1 1.6 14.1
      vertex 2 0 14.1
      vertex 9.1 0 14.1
    endloop
  endfacet
  facet normal -0 0 1
    outer loop
      vertex 1.6 1.6 14.1
      vertex 2 0 14.1
      vertex 9.1 1.6 14.1
    endloop
  endfacet
  facet normal 0 0 1
    outer loop
      vertex 2 0 14.1
      vertex 1.6 1.6 14.1
      vertex 1.73895 0.0171051 14.1
    endloop
  endfacet
  facet normal 0 0 1
    outer loop
      vertex 1.6 1.6 14.1
      vertex 1.48236 0.0681458 14.1
      vertex 1.73895 0.0171051 14.1
    endloop
  endfacet
  facet normal 0 0 1
    outer loop
      vertex 1.6 40.6 14.1
      vertex 0 40.2 14.1
      vertex 1.6 1.6 14.1
    endloop
  endfacet
  facet normal -0 0 1
    outer loop
      vertex 1 41.9321 14.1
      vertex 1.6 40.6 14.1
      vertex 1.23463 42.0478 14.1
    endloop
  endfacet
  facet normal -0 0 1
    outer loop
      vertex 0 2 14.1
      vertex 1.6 1.6 14.1
      vertex 0 40.2 14.1
    endloop
  endfacet
  facet normal -0 0 1
    outer loop
      vertex 0.782471 41.7867 14.1
      vertex 1.6 40.6 14.1
      vertex 1 41.9321 14.1
    endloop
  endfacet
  facet normal -0 -0 1
    outer loop
      vertex 0.0171051 1.73895 14.1
      vertex 1.6 1.6 14.1
      vertex 0 2 14.1
    endloop
  endfacet
  facet normal -0 0 1
    outer loop
      vertex 0.585785 41.6142 14.1
      vertex 1.6 40.6 14.1
      vertex 0.782471 41.7867 14.1
    endloop
  endfacet
  facet normal 0 0 1
    outer loop
      vertex 1.6 1.6 14.1
      vertex 1.23463 0.152237 14.1
      vertex 1.48236 0.0681458 14.1
    endloop
  endfacet
  facet normal -0 0 1
    outer loop
      vertex 0.4133 41.4175 14.1
      vertex 1.6 40.6 14.1
      vertex 0.585785 41.6142 14.1
    endloop
  endfacet
  facet normal 0 0 1
    outer loop
      vertex 1.6 1.6 14.1
      vertex 1 0.267944 14.1
      vertex 1.23463 0.152237 14.1
    endloop
  endfacet
  facet normal -0 0 1
    outer loop
      vertex 0.267944 41.2 14.1
      vertex 1.6 40.6 14.1
      vertex 0.4133 41.4175 14.1
    endloop
  endfacet
  facet normal 0 0 1
    outer loop
      vertex 1.6 1.6 14.1
      vertex 0.782471 0.4133 14.1
      vertex 1 0.267944 14.1
    endloop
  endfacet
  facet normal -0 0 1
    outer loop
      vertex 0.152237 40.9654 14.1
      vertex 1.6 40.6 14.1
      vertex 0.267944 41.2 14.1
    endloop
  endfacet
  facet normal 0 0 1
    outer loop
      vertex 1.6 1.6 14.1
      vertex 0.585785 0.585785 14.1
      vertex 0.782471 0.4133 14.1
    endloop
  endfacet
  facet normal -0 0 1
    outer loop
      vertex 0.0681458 40.7176 14.1
      vertex 1.6 40.6 14.1
      vertex 0.152237 40.9654 14.1
    endloop
  endfacet
  facet normal 0 0 1
    outer loop
      vertex 1.6 1.6 14.1
      vertex 0.4133 0.782471 14.1
      vertex 0.585785 0.585785 14.1
    endloop
  endfacet
  facet normal 0 0 1
    outer loop
      vertex 0.0171051 40.461 14.1
      vertex 1.6 40.6 14.1
      vertex 0.0681458 40.7176 14.1
    endloop
  endfacet
  facet normal 0 0 1
    outer loop
      vertex 1.6 1.6 14.1
      vertex 0.267944 1 14.1
      vertex 0.4133 0.782471 14.1
    endloop
  endfacet
  facet normal 0 0 1
    outer loop
      vertex 1.6 40.6 14.1
      vertex 0.0171051 40.461 14.1
      vertex 0 40.2 14.1
    endloop
  endfacet
  facet normal 0 0 1
    outer loop
      vertex 1.6 1.6 14.1
      vertex 0.152237 1.23463 14.1
      vertex 0.267944 1 14.1
    endloop
  endfacet
  facet normal 0 0 1
    outer loop
      vertex 1.6 1.6 14.1
      vertex 0.0681458 1.48236 14.1
      vertex 0.152237 1.23463 14.1
    endloop
  endfacet
  facet normal 0 0 1
    outer loop
      vertex 1.6 1.6 14.1
      vertex 0.0171051 1.73895 14.1
      vertex 0.0681458 1.48236 14.1
    endloop
  endfacet
  facet normal 0 0 -1
    outer loop
      vertex 51.2 0 0
      vertex 53.2 2 0
      vertex 53.1829 1.73895 0
    endloop
  endfacet
  facet normal 0 0 -1
    outer loop
      vertex 53.2 2 0
      vertex 23.1 11.1 0
      vertex 53.2 40.2 0
    endloop
  endfacet
  facet normal 0 0 -1
    outer loop
      vertex 51.2 0 0
      vertex 53.1829 1.73895 0
      vertex 53.1319 1.48236 0
    endloop
  endfacet
  facet normal 0 0 -1
    outer loop
      vertex 23.1 31.1 0
      vertex 53.2 40.2 0
      vertex 23.1 11.1 0
    endloop
  endfacet
  facet normal 0 0 -1
    outer loop
      vertex 51.2 0 0
      vertex 53.1319 1.48236 0
      vertex 53.0478 1.23463 0
    endloop
  endfacet
  facet normal 0 -0 -1
    outer loop
      vertex 51.2 42.2 0
      vertex 53.2 40.2 0
      vertex 23.1 31.1 0
    endloop
  endfacet
  facet normal 0 0 -1
    outer loop
      vertex 51.2 0 0
      vertex 53.0478 1.23463 0
      vertex 52.9321 1 0
    endloop
  endfacet
  facet normal 0 0 -1
    outer loop
      vertex 53.2 40.2 0
      vertex 51.2 42.2 0
      vertex 53.1829 40.461 0
    endloop
  endfacet
  facet normal 0 0 -1
    outer loop
      vertex 51.2 0 0
      vertex 52.9321 1 0
      vertex 52.7867 0.782471 0
    endloop
  endfacet
  facet normal 0 0 -1
    outer loop
      vertex 53.1829 40.461 0
      vertex 51.2 42.2 0
      vertex 53.1319 40.7176 0
    endloop
  endfacet
  facet normal 0 0 -1
    outer loop
      vertex 51.2 0 0
      vertex 52.7867 0.782471 0
      vertex 52.6142 0.585785 0
    endloop
  endfacet
  facet normal -0 0 -1
    outer loop
      vertex 53.2 2 0
      vertex 51.2 0 0
      vertex 23.1 11.1 0
    endloop
  endfacet
  facet normal 0 0 -1
    outer loop
      vertex 51.2 0 0
      vertex 52.6142 0.585785 0
      vertex 52.4175 0.4133 0
    endloop
  endfacet
  facet normal 0 0 -1
    outer loop
      vertex 53.1319 40.7176 0
      vertex 51.2 42.2 0
      vertex 53.0478 40.9654 0
    endloop
  endfacet
  facet normal 0 0 -1
    outer loop
      vertex 51.2 0 0
      vertex 52.4175 0.4133 0
      vertex 52.2 0.267944 0
    endloop
  endfacet
  facet normal 0 0 -1
    outer loop
      vertex 52.7867 41.4175 0
      vertex 51.2 42.2 0
      vertex 52.6142 41.6142 0
    endloop
  endfacet
  facet normal 0 0 -1
    outer loop
      vertex 51.2 0 0
      vertex 52.2 0.267944 0
      vertex 51.9654 0.152237 0
    endloop
  endfacet
  facet normal 0 0 -1
    outer loop
      vertex 52.6142 41.6142 0
      vertex 51.2 42.2 0
      vertex 52.4175 41.7867 0
    endloop
  endfacet
  facet normal 0 0 -1
    outer loop
      vertex 51.2 0 0
      vertex 51.9654 0.152237 0
      vertex 51.7176 0.0681458 0
    endloop
  endfacet
  facet normal 0 0 -1
    outer loop
      vertex 52.4175 41.7867 0
      vertex 51.2 42.2 0
      vertex 52.2 41.9321 0
    endloop
  endfacet
  facet normal 0 0 -1
    outer loop
      vertex 51.2 0 0
      vertex 51.7176 0.0681458 0
      vertex 51.461 0.0171051 0
    endloop
  endfacet
  facet normal 0 0 -1
    outer loop
      vertex 52.2 41.9321 0
      vertex 51.2 42.2 0
      vertex 51.9654 42.0478 0
    endloop
  endfacet
  facet normal 0 0 -1
    outer loop
      vertex 51.9654 42.0478 0
      vertex 51.2 42.2 0
      vertex 51.7176 42.1319 0
    endloop
  endfacet
  facet normal 0 0 -1
    outer loop
      vertex 51.7176 42.1319 0
      vertex 51.2 42.2 0
      vertex 51.461 42.1829 0
    endloop
  endfacet
  facet normal 0 0 -1
    outer loop
      vertex 53.0478 40.9654 0
      vertex 51.2 42.2 0
      vertex 52.9321 41.2 0
    endloop
  endfacet
  facet normal 0 0 -1
    outer loop
      vertex 2 0 0
      vertex 23.1 11.1 0
      vertex 51.2 0 0
    endloop
  endfacet
  facet normal 0 0 -1
    outer loop
      vertex 21.1 11.1 0
      vertex 16.1 11.1 0
      vertex 21.1 31.1 0
    endloop
  endfacet
  facet normal -0 0 -1
    outer loop
      vertex 23.1 11.1 0
      vertex 2 0 0
      vertex 21.1 11.1 0
    endloop
  endfacet
  facet normal -0 0 -1
    outer loop
      vertex 21.1 11.1 0
      vertex 2 0 0
      vertex 16.1 11.1 0
    endloop
  endfacet
  facet normal 0 0 -1
    outer loop
      vertex 14.1 11.1 0
      vertex 9.1 11.1 0
      vertex 14.1 31.1 0
    endloop
  endfacet
  facet normal -0 0 -1
    outer loop
      vertex 16.1 11.1 0
      vertex 2 0 0
      vertex 14.1 11.1 0
    endloop
  endfacet
  facet normal -0 0 -1
    outer loop
      vertex 14.1 11.1 0
      vertex 2 0 0
      vertex 9.1 11.1 0
    endloop
  endfacet
  facet normal 0 0 -1
    outer loop
      vertex 0 2 0
      vertex 7.1 11.1 0
      vertex 2 0 0
    endloop
  endfacet
  facet normal -0 0 -1
    outer loop
      vertex 9.1 11.1 0
      vertex 2 0 0
      vertex 7.1 11.1 0
    endloop
  endfacet
  facet normal 0 0 -1
    outer loop
      vertex 52.9321 41.2 0
      vertex 51.2 42.2 0
      vertex 52.7867 41.4175 0
    endloop
  endfacet
  facet normal 0 0 -1
    outer loop
      vertex 2 42.2 0
      vertex 23.1 31.1 0
      vertex 21.1 31.1 0
    endloop
  endfacet
  facet normal 0 0 -1
    outer loop
      vertex 16.1 31.1 0
      vertex 21.1 31.1 0
      vertex 16.1 11.1 0
    endloop
  endfacet
  facet normal 0 0 -1
    outer loop
      vertex 2 42.2 0
      vertex 21.1 31.1 0
      vertex 16.1 31.1 0
    endloop
  endfacet
  facet normal 0 0 -1
    outer loop
      vertex 2 42.2 0
      vertex 16.1 31.1 0
      vertex 14.1 31.1 0
    endloop
  endfacet
  facet normal 0 0 -1
    outer loop
      vertex 9.1 31.1 0
      vertex 14.1 31.1 0
      vertex 9.1 11.1 0
    endloop
  endfacet
  facet normal 0 0 -1
    outer loop
      vertex 2 42.2 0
      vertex 14.1 31.1 0
      vertex 9.1 31.1 0
    endloop
  endfacet
  facet normal 0 0 -1
    outer loop
      vertex 2 42.2 0
      vertex 9.1 31.1 0
      vertex 7.1 31.1 0
    endloop
  endfacet
  facet normal 0 0 -1
    outer loop
      vertex 23.1 31.1 0
      vertex 2 42.2 0
      vertex 51.2 42.2 0
    endloop
  endfacet
  facet normal -0 0 -1
    outer loop
      vertex 7.1 11.1 0
      vertex 0 2 0
      vertex 7.1 31.1 0
    endloop
  endfacet
  facet normal 0 0 -1
    outer loop
      vertex 0 2 0
      vertex 2 0 0
      vertex 1.73895 0.0171051 0
    endloop
  endfacet
  facet normal 0 0 -1
    outer loop
      vertex 0 40.2 0
      vertex 7.1 31.1 0
      vertex 0 2 0
    endloop
  endfacet
  facet normal 0 0 -1
    outer loop
      vertex 0 2 0
      vertex 1.73895 0.0171051 0
      vertex 1.48236 0.0681458 0
    endloop
  endfacet
  facet normal 0 0 -1
    outer loop
      vertex 7.1 31.1 0
      vertex 0 40.2 0
      vertex 2 42.2 0
    endloop
  endfacet
  facet normal 0 0 -1
    outer loop
      vertex 0 2 0
      vertex 1.48236 0.0681458 0
      vertex 1.23463 0.152237 0
    endloop
  endfacet
  facet normal 0 0 -1
    outer loop
      vertex 2 42.2 0
      vertex 0 40.2 0
      vertex 1.73895 42.1829 0
    endloop
  endfacet
  facet normal 0 0 -1
    outer loop
      vertex 0 2 0
      vertex 1.23463 0.152237 0
      vertex 1 0.267944 0
    endloop
  endfacet
  facet normal 0 0 -1
    outer loop
      vertex 1.73895 42.1829 0
      vertex 0 40.2 0
      vertex 1.48236 42.1319 0
    endloop
  endfacet
  facet normal 0 0 -1
    outer loop
      vertex 0 2 0
      vertex 1 0.267944 0
      vertex 0.782471 0.4133 0
    endloop
  endfacet
  facet normal 0 0 -1
    outer loop
      vertex 1.48236 42.1319 0
      vertex 0 40.2 0
      vertex 1.23463 42.0478 0
    endloop
  endfacet
  facet normal 0 0 -1
    outer loop
      vertex 0 2 0
      vertex 0.782471 0.4133 0
      vertex 0.585785 0.585785 0
    endloop
  endfacet
  facet normal 0 0 -1
    outer loop
      vertex 1.23463 42.0478 0
      vertex 0 40.2 0
      vertex 1 41.9321 0
    endloop
  endfacet
  facet normal 0 0 -1
    outer loop
      vertex 0 2 0
      vertex 0.585785 0.585785 0
      vertex 0.4133 0.782471 0
    endloop
  endfacet
  facet normal 0 0 -1
    outer loop
      vertex 1 41.9321 0
      vertex 0 40.2 0
      vertex 0.782471 41.7867 0
    endloop
  endfacet
  facet normal 0 0 -1
    outer loop
      vertex 0 2 0
      vertex 0.4133 0.782471 0
      vertex 0.267944 1 0
    endloop
  endfacet
  facet normal 0 0 -1
    outer loop
      vertex 0.782471 41.7867 0
      vertex 0 40.2 0
      vertex 0.585785 41.6142 0
    endloop
  endfacet
  facet normal 0 0 -1
    outer loop
      vertex 0 2 0
      vertex 0.267944 1 0
      vertex 0.152237 1.23463 0
    endloop
  endfacet
  facet normal 0 0 -1
    outer loop
      vertex 0.585785 41.6142 0
      vertex 0 40.2 0
      vertex 0.4133 41.4175 0
    endloop
  endfacet
  facet normal 0 0 -1
    outer loop
      vertex 0 2 0
      vertex 0.152237 1.23463 0
      vertex 0.0681458 1.48236 0
    endloop
  endfacet
  facet normal 0 0 -1
    outer loop
      vertex 0.4133 41.4175 0
      vertex 0 40.2 0
      vertex 0.267944 41.2 0
    endloop
  endfacet
  facet normal 0 0 -1
    outer loop
      vertex 0 2 0
      vertex 0.0681458 1.48236 0
      vertex 0.0171051 1.73895 0
    endloop
  endfacet
  facet normal 0 0 -1
    outer loop
      vertex 0.267944 41.2 0
      vertex 0 40.2 0
      vertex 0.152237 40.9654 0
    endloop
  endfacet
  facet normal 0 0 -1
    outer loop
      vertex 0.152237 40.9654 0
      vertex 0 40.2 0
      vertex 0.0681458 40.7176 0
    endloop
  endfacet
  facet normal 0 0 -1
    outer loop
      vertex 0.0681458 40.7176 0
      vertex 0 40.2 0
      vertex 0.0171051 40.461 0
    endloop
  endfacet
  facet normal -1 0 0
    outer loop
      vertex 51.6 1.6 1.6
      vertex 51.6 40.6 14.1
      vertex 51.6 40.6 1.6
    endloop
  endfacet
  facet normal -1 -0 0
    outer loop
      vertex 51.6 40.6 14.1
      vertex 51.6 1.6 1.6
      vertex 51.6 1.6 14.1
    endloop
  endfacet
  facet normal -0 0 1
    outer loop
      vertex 31.6 40.6 1.6
      vertex 51.6 1.6 1.6
      vertex 51.6 40.6 1.6
    endloop
  endfacet
  facet normal 0 0 1
    outer loop
      vertex 51.6 1.6 1.6
      vertex 31.6 40.6 1.6
      vertex 31.6 1.6 1.6
    endloop
  endfacet
  facet normal 0 0 1
    outer loop
      vertex 28.6 40.6 1.6
      vertex 23.1 31.1 1.6
      vertex 28.6 1.6 1.6
    endloop
  endfacet
  facet normal 0 0 1
    outer loop
      vertex 28.6 40.6 1.6
      vertex 21.1 31.1 1.6
      vertex 23.1 31.1 1.6
    endloop
  endfacet
  facet normal 0 0 1
    outer loop
      vertex 21.1 31.1 1.6
      vertex 16.1 31.1 1.6
      vertex 21.1 11.1 1.6
    endloop
  endfacet
  facet normal 0 0 1
    outer loop
      vertex 28.6 40.6 1.6
      vertex 16.1 31.1 1.6
      vertex 21.1 31.1 1.6
    endloop
  endfacet
  facet normal 0 0 1
    outer loop
      vertex 28.6 40.6 1.6
      vertex 14.1 31.1 1.6
      vertex 16.1 31.1 1.6
    endloop
  endfacet
  facet normal 0 0 1
    outer loop
      vertex 14.1 31.1 1.6
      vertex 9.1 31.1 1.6
      vertex 14.1 11.1 1.6
    endloop
  endfacet
  facet normal -0 0 1
    outer loop
      vertex 1.6 40.6 1.6
      vertex 14.1 31.1 1.6
      vertex 28.6 40.6 1.6
    endloop
  endfacet
  facet normal 0 0 1
    outer loop
      vertex 14.1 31.1 1.6
      vertex 1.6 40.6 1.6
      vertex 9.1 31.1 1.6
    endloop
  endfacet
  facet normal 0 0 1
    outer loop
      vertex 7.1 31.1 1.6
      vertex 1.6 40.6 1.6
      vertex 7.1 11.1 1.6
    endloop
  endfacet
  facet normal 0 0 1
    outer loop
      vertex 9.1 31.1 1.6
      vertex 1.6 40.6 1.6
      vertex 7.1 31.1 1.6
    endloop
  endfacet
  facet normal -0 0 1
    outer loop
      vertex 23.1 11.1 1.6
      vertex 28.6 1.6 1.6
      vertex 23.1 31.1 1.6
    endloop
  endfacet
  facet normal -0 0 1
    outer loop
      vertex 21.1 11.1 1.6
      vertex 28.6 1.6 1.6
      vertex 23.1 11.1 1.6
    endloop
  endfacet
  facet normal 0 0 1
    outer loop
      vertex 16.1 11.1 1.6
      vertex 21.1 11.1 1.6
      vertex 16.1 31.1 1.6
    endloop
  endfacet
  facet normal -0 0 1
    outer loop
      vertex 16.1 11.1 1.6
      vertex 28.6 1.6 1.6
      vertex 21.1 11.1 1.6
    endloop
  endfacet
  facet normal -0 0 1
    outer loop
      vertex 14.1 11.1 1.6
      vertex 28.6 1.6 1.6
      vertex 16.1 11.1 1.6
    endloop
  endfacet
  facet normal 0 0 1
    outer loop
      vertex 9.1 11.1 1.6
      vertex 14.1 11.1 1.6
      vertex 9.1 31.1 1.6
    endloop
  endfacet
  facet normal 0 0 1
    outer loop
      vertex 1.6 1.6 1.6
      vertex 14.1 11.1 1.6
      vertex 9.1 11.1 1.6
    endloop
  endfacet
  facet normal 0 0 1
    outer loop
      vertex 1.6 1.6 1.6
      vertex 9.1 11.1 1.6
      vertex 7.1 11.1 1.6
    endloop
  endfacet
  facet normal 0 0 1
    outer loop
      vertex 14.1 11.1 1.6
      vertex 1.6 1.6 1.6
      vertex 28.6 1.6 1.6
    endloop
  endfacet
  facet normal 0 0 1
    outer loop
      vertex 1.6 1.6 1.6
      vertex 7.1 11.1 1.6
      vertex 1.6 40.6 1.6
    endloop
  endfacet
  facet normal 1 -0 0
    outer loop
      vertex 1.6 1.6 14.1
      vertex 1.6 40.6 1.6
      vertex 1.6 40.6 14.1
    endloop
  endfacet
  facet normal 1 0 0
    outer loop
      vertex 1.6 40.6 1.6
      vertex 1.6 1.6 14.1
      vertex 1.6 1.6 1.6
    endloop
  endfacet
  facet normal 0 -1 0
    outer loop
      vertex 1.6 40.6 14.1
      vertex 28.6 40.6 8.6
      vertex 51.6 40.6 14.1
    endloop
  endfacet
  facet normal 0 -1 0
    outer loop
      vertex 1.6 40.6 1.6
      vertex 28.6 40.6 8.6
      vertex 1.6 40.6 14.1
    endloop
  endfacet
  facet normal 0 -1 -0
    outer loop
      vertex 28.6 40.6 8.6
      vertex 1.6 40.6 1.6
      vertex 28.6 40.6 1.6
    endloop
  endfacet
  facet normal 0 -1 0
    outer loop
      vertex 31.6 40.6 8.6
      vertex 51.6 40.6 14.1
      vertex 28.6 40.6 8.6
    endloop
  endfacet
  facet normal 0 -1 0
    outer loop
      vertex 51.6 40.6 1.6
      vertex 31.6 40.6 8.6
      vertex 31.6 40.6 1.6
    endloop
  endfacet
  facet normal 0 -1 0
    outer loop
      vertex 31.6 40.6 8.6
      vertex 51.6 40.6 1.6
      vertex 51.6 40.6 14.1
    endloop
  endfacet
  facet normal 0 1 0
    outer loop
      vertex 51.6 1.6 14.1
      vertex 31.6 1.6 8.6
      vertex 21.1 1.6 14.1
    endloop
  endfacet
  facet normal 0 1 -0
    outer loop
      vertex 51.6 1.6 1.6
      vertex 31.6 1.6 8.6
      vertex 51.6 1.6 14.1
    endloop
  endfacet
  facet normal 0 1 0
    outer loop
      vertex 31.6 1.6 8.6
      vertex 51.6 1.6 1.6
      vertex 31.6 1.6 1.6
    endloop
  endfacet
  facet normal 0 1 -0
    outer loop
      vertex 28.6 1.6 8.6
      vertex 21.1 1.6 14.1
      vertex 31.6 1.6 8.6
    endloop
  endfacet
  facet normal 0 1 0
    outer loop
      vertex 28.6 1.6 8.6
      vertex 21.1 1.6 8
      vertex 21.1 1.6 14.1
    endloop
  endfacet
  facet normal 0 1 0
    outer loop
      vertex 21.1 1.6 8
      vertex 28.6 1.6 1.6
      vertex 9.1 1.6 8
    endloop
  endfacet
  facet normal 0 1 -0
    outer loop
      vertex 28.6 1.6 1.6
      vertex 21.1 1.6 8
      vertex 28.6 1.6 8.6
    endloop
  endfacet
  facet normal 0 1 -0
    outer loop
      vertex 9.1 1.6 8
      vertex 1.6 1.6 14.1
      vertex 9.1 1.6 14.1
    endloop
  endfacet
  facet normal 0 1 0
    outer loop
      vertex 9.1 1.6 8
      vertex 1.6 1.6 1.6
      vertex 1.6 1.6 14.1
    endloop
  endfacet
  facet normal 0 1 0
    outer loop
      vertex 1.6 1.6 1.6
      vertex 9.1 1.6 8
      vertex 28.6 1.6 1.6
    endloop
  endfacet
  facet normal 1 -0 0
    outer loop
      vertex 31.6 1.6 8.6
      vertex 31.6 40.6 1.6
      vertex 31.6 40.6 8.6
    endloop
  endfacet
  facet normal 1 0 0
    outer loop
      vertex 31.6 40.6 1.6
      vertex 31.6 1.6 8.6
      vertex 31.6 1.6 1.6
    endloop
  endfacet
  facet normal -0 0 1
    outer loop
      vertex 28.6 40.6 8.6
      vertex 31.6 1.6 8.6
      vertex 31.6 40.6 8.6
    endloop
  endfacet
  facet normal 0 0 1
    outer loop
      vertex 31.6 1.6 8.6
      vertex 28.6 40.6 8.6
      vertex 28.6 1.6 8.6
    endloop
  endfacet
  facet normal -1 0 0
    outer loop
      vertex 28.6 1.6 1.6
      vertex 28.6 40.6 8.6
      vertex 28.6 40.6 1.6
    endloop
  endfacet
  facet normal -1 -0 0
    outer loop
      vertex 28.6 40.6 8.6
      vertex 28.6 1.6 1.6
      vertex 28.6 1.6 8.6
    endloop
  endfacet
  facet normal -1 0 0
    outer loop
      vertex 9.1 11.1 0
      vertex 9.1 31.1 1.6
      vertex 9.1 31.1 0
    endloop
  endfacet
  facet normal -1 -0 0
    outer loop
      vertex 9.1 31.1 1.6
      vertex 9.1 11.1 0
      vertex 9.1 11.1 1.6
    endloop
  endfacet
  facet normal 1 -0 0
    outer loop
      vertex 7.1 11.1 1.6
      vertex 7.1 31.1 0
      vertex 7.1 31.1 1.6
    endloop
  endfacet
  facet normal 1 0 0
    outer loop
      vertex 7.1 31.1 0
      vertex 7.1 11.1 1.6
      vertex 7.1 11.1 0
    endloop
  endfacet
  facet normal 0 -1 0
    outer loop
      vertex 7.1 31.1 0
      vertex 9.1 31.1 1.6
      vertex 7.1 31.1 1.6
    endloop
  endfacet
  facet normal 0 -1 -0
    outer loop
      vertex 9.1 31.1 1.6
      vertex 7.1 31.1 0
      vertex 9.1 31.1 0
    endloop
  endfacet
  facet normal 0 1 -0
    outer loop
      vertex 9.1 11.1 0
      vertex 7.1 11.1 1.6
      vertex 9.1 11.1 1.6
    endloop
  endfacet
  facet normal 0 1 0
    outer loop
      vertex 7.1 11.1 1.6
      vertex 9.1 11.1 0
      vertex 7.1 11.1 0
    endloop
  endfacet
  facet normal -1 0 0
    outer loop
      vertex 16.1 11.1 0
      vertex 16.1 31.1 1.6
      vertex 16.1 31.1 0
    endloop
  endfacet
  facet normal -1 -0 0
    outer loop
      vertex 16.1 31.1 1.6
      vertex 16.1 11.1 0
      vertex 16.1 11.1 1.6
    endloop
  endfacet
  facet normal 1 -0 0
    outer loop
      vertex 14.1 11.1 1.6
      vertex 14.1 31.1 0
      vertex 14.1 31.1 1.6
    endloop
  endfacet
  facet normal 1 0 0
    outer loop
      vertex 14.1 31.1 0
      vertex 14.1 11.1 1.6
      vertex 14.1 11.1 0
    endloop
  endfacet
  facet normal 0 -1 0
    outer loop
      vertex 14.1 31.1 0
      vertex 16.1 31.1 1.6
      vertex 14.1 31.1 1.6
    endloop
  endfacet
  facet normal 0 -1 -0
    outer loop
      vertex 16.1 31.1 1.6
      vertex 14.1 31.1 0
      vertex 16.1 31.1 0
    endloop
  endfacet
  facet normal 0 1 -0
    outer loop
      vertex 16.1 11.1 0
      vertex 14.1 11.1 1.6
      vertex 16.1 11.1 1.6
    endloop
  endfacet
  facet normal 0 1 0
    outer loop
      vertex 14.1 11.1 1.6
      vertex 16.1 11.1 0
      vertex 14.1 11.1 0
    endloop
  endfacet
  facet normal -1 0 0
    outer loop
      vertex 23.1 11.1 0
      vertex 23.1 31.1 1.6
      vertex 23.1 31.1 0
    endloop
  endfacet
  facet normal -1 -0 0
    outer loop
      vertex 23.1 31.1 1.6
      vertex 23.1 11.1 0
      vertex 23.1 11.1 1.6
    endloop
  endfacet
  facet normal 1 -0 0
    outer loop
      vertex 21.1 11.1 1.6
      vertex 21.1 31.1 0
      vertex 21.1 31.1 1.6
    endloop
  endfacet
  facet normal 1 0 0
    outer loop
      vertex 21.1 31.1 0
      vertex 21.1 11.1 1.6
      vertex 21.1 11.1 0
    endloop
  endfacet
  facet normal 0 -1 0
    outer loop
      vertex 21.1 31.1 0
      vertex 23.1 31.1 1.6
      vertex 21.1 31.1 1.6
    endloop
  endfacet
  facet normal 0 -1 -0
    outer loop
      vertex 23.1 31.1 1.6
      vertex 21.1 31.1 0
      vertex 23.1 31.1 0
    endloop
  endfacet
  facet normal 0 1 -0
    outer loop
      vertex 23.1 11.1 0
      vertex 21.1 11.1 1.6
      vertex 23.1 11.1 1.6
    endloop
  endfacet
  facet normal 0 1 0
    outer loop
      vertex 21.1 11.1 1.6
      vertex 23.1 11.1 0
      vertex 21.1 11.1 0
    endloop
  endfacet
  facet normal -1 0 0
    outer loop
      vertex 31.6 0 12.1
      vertex 31.6 0.99 14.1
      vertex 31.6 0.99 12.1
    endloop
  endfacet
  facet normal -1 -0 0
    outer loop
      vertex 31.6 0.99 14.1
      vertex 31.6 0 12.1
      vertex 31.6 0 14.1
    endloop
  endfacet
  facet normal -0 0 1
    outer loop
      vertex 21.6 0.99 12.1
      vertex 31.6 0 12.1
      vertex 31.6 0.99 12.1
    endloop
  endfacet
  facet normal 0 0 1
    outer loop
      vertex 31.6 0 12.1
      vertex 21.6 0.99 12.1
      vertex 21.6 0 12.1
    endloop
  endfacet
  facet normal 1 -0 0
    outer loop
      vertex 21.6 0 14.1
      vertex 21.6 0.99 12.1
      vertex 21.6 0.99 14.1
    endloop
  endfacet
  facet normal 1 0 0
    outer loop
      vertex 21.6 0.99 12.1
      vertex 21.6 0 14.1
      vertex 21.6 0 12.1
    endloop
  endfacet
  facet normal 0 -1 0
    outer loop
      vertex 21.6 0.99 12.1
      vertex 31.6 0.99 14.1
      vertex 21.6 0.99 14.1
    endloop
  endfacet
  facet normal 0 -1 -0
    outer loop
      vertex 31.6 0.99 14.1
      vertex 21.6 0.99 12.1
      vertex 31.6 0.99 12.1
    endloop
  endfacet
  facet normal -1 0 0
    outer loop
      vertex 31.6 41.21 12.1
      vertex 31.6 42.2 14.1
      vertex 31.6 42.2 12.1
    endloop
  endfacet
  facet normal -1 -0 0
    outer loop
      vertex 31.6 42.2 14.1
      vertex 31.6 41.21 12.1
      vertex 31.6 41.21 14.1
    endloop
  endfacet
  facet normal -0 0 1
    outer loop
      vertex 21.6 42.2 12.1
      vertex 31.6 41.21 12.1
      vertex 31.6 42.2 12.1
    endloop
  endfacet
  facet normal 0 0 1
    outer loop
      vertex 31.6 41.21 12.1
      vertex 21.6 42.2 12.1
      vertex 21.6 41.21 12.1
    endloop
  endfacet
  facet normal 1 -0 0
    outer loop
      vertex 21.6 41.21 14.1
      vertex 21.6 42.2 12.1
      vertex 21.6 42.2 14.1
    endloop
  endfacet
  facet normal 1 0 0
    outer loop
      vertex 21.6 42.2 12.1
      vertex 21.6 41.21 14.1
      vertex 21.6 41.21 12.1
    endloop
  endfacet
  facet normal 0 1 -0
    outer loop
      vertex 31.6 41.21 12.1
      vertex 21.6 41.21 14.1
      vertex 31.6 41.21 14.1
    endloop
  endfacet
  facet normal 0 1 0
    outer loop
      vertex 21.6 41.21 14.1
      vertex 31.6 41.21 12.1
      vertex 21.6 41.21 12.1
    endloop
  endfacet
  facet normal -1 0 0
    outer loop
      vertex 21.1 0 8
      vertex 21.1 1.6 14.1
      vertex 21.1 1.6 8
    endloop
  endfacet
  facet normal -1 -0 0
    outer loop
      vertex 21.1 1.6 14.1
      vertex 21.1 0 8
      vertex 21.1 0 14.1
    endloop
  endfacet
  facet normal -0 0 1
    outer loop
      vertex 9.1 1.6 8
      vertex 21.1 0 8
      vertex 21.1 1.6 8
    endloop
  endfacet
  facet normal 0 0 1
    outer loop
      vertex 21.1 0 8
      vertex 9.1 1.6 8
      vertex 9.1 0 8
    endloop
  endfacet
  facet normal 1 -0 0
    outer loop
      vertex 9.1 0 14.1
      vertex 9.1 1.6 8
      vertex 9.1 1.6 14.1
    endloop
  endfacet
  facet normal 1 0 0
    outer loop
      vertex 9.1 1.6 8
      vertex 9.1 0 14.1
      vertex 9.1 0 8
    endloop
  endfacet
endsolid OpenSCAD_Model
